<!--<svg xmlns="http://www.w3.org/2000/svg" width="24" height="24" viewBox="0 0 24 24" style="fill: rgba(245, 158, 11, 1);transform: ;msFilter:;"><path d="M20 4H8.515a2 2 0 0 0-1.627.838l-4.701 6.581a.997.997 0 0 0 0 1.162l4.701 6.581A2 2 0 0 0 8.515 20H20c1.103 0 2-.897 2-2V6c0-1.103-.897-2-2-2zm0 14H8.515l-4.286-6 4.286-6H20v12z"></path></svg>-->
<svg xmlns="http://www.w3.org/2000/svg" width="24" height="24" viewBox="0 0 24 24" style="fill: rgba(245, 158, 11, 1);transform: ;msFilter:;"><path d="M12.71 2.29a1 1 0 0 0-1.42 0l-9 9a1 1 0 0 0 0 1.42A1 1 0 0 0 3 13h1v7a2 2 0 0 0 2 2h12a2 2 0 0 0 2-2v-7h1a1 1 0 0 0 1-1 1 1 0 0 0-.29-.71zM6 20v-9.59l6-6 6 6V20z"></path></svg>